<svg xml:space="preserve" width="213.86" height="126.117" xmlns="http://www.w3.org/2000/svg"><g style="display:inline" transform="translate(-92.77 -153.171)"><ellipse class="st17" cx="199.7" cy="211.95" rx="103.93" ry="51" style="fill:#f42e8d;stroke:#fff;stroke-width:6;stroke-miterlimit:10"/><ellipse class="st18" cx="199.97" cy="211.95" rx="93.24" ry="41" style="fill:#f42e8d;stroke:#fff;stroke-width:3;stroke-miterlimit:10"/></g><path class="st19" style="fill:#fff;stroke:#fff;stroke-width:6;stroke-miterlimit:10" transform="translate(-92.77 -153.171)" d="M216.68 222.27v-8.79l2.1-2.21 5.4.25v10.75zM248.83 222.27v-8.79l2.1-2.21 5.4.25v10.75z"/><path class="st19" style="fill:#fff;stroke:#fff;stroke-width:6;stroke-miterlimit:10" transform="translate(-92.77 -153.171)" d="M216.68 223.56v-8.79l2.1-2.21 5.4.25v10.75zM125.12 237.48v-54.5l3.78-4.75h9.47v59.25zM139.86 204.18l3.75-3.28h7.36l-.18 16.25h9.01l.28-16.25h9.53l.25 36.58h-30zM171.18 204.4l3.65-3.5h23.6v12.19l-15.25.21v10.47l15.25-.05v13.76h-27.25zM199.97 200.9h12.5v36.59h-12.5z"/><path class="st19" style="fill:#fff;stroke:#fff;stroke-width:6;stroke-miterlimit:10" d="m214.09 204.41 4-3.51h14.44l-.25-17.14 3-5.53h9.92l.14 22.67v36.58h-31.25zM251.42 200.9h19.99l.25 4.25 3.49-4.25h6.35v36.58H247l-.25-32.08zM116.91 237.48v-54.5l3.78-4.75h9.47v59.25zM131.64 204.18l3.75-3.28h7.36l-.18 16.25h9.01l.29-16.25h9.52l.25 36.58h-30zM162.97 204.4l3.64-3.5h23.61v12.19l-15.25.21v10.47l15.25-.05v13.76h-27.25zM191.76 200.9h12.5v36.59h-12.5z" transform="translate(-92.77 -153.171)"/><path class="st19" style="fill:#fff;stroke:#fff;stroke-width:6;stroke-miterlimit:10" d="m205.88 204.41 4-3.51h14.43l-.25-17.14 3-5.53h9.93l.14 22.67v36.58h-31.25zM243.21 200.9h19.99l.24 4.25 3.5-4.25h6.34v36.58h-34.5l-.25-32.08zM162.97 204.4l3.64-3.5h23.61v12.19l-15.25.21v10.47l15.25-.05v13.76h-27.25zM131.64 204.18l3.75-3.28h7.36l-.18 16.25h9.01l.29-16.25h9.52l.25 36.58h-30z" transform="translate(-92.77 -153.171)"/><g transform="translate(-92.77 -153.171)"><path class="st19" style="fill:#fff;stroke:#fff;stroke-width:6;stroke-miterlimit:10" d="M216.68 222.27v-8.79l2.1-2.21 5.4.25v10.75zM248.83 222.27v-8.79l2.1-2.21 5.4.25v10.75z"/><path class="st19" style="fill:#fff;stroke:#fff;stroke-width:6;stroke-miterlimit:10" d="M216.68 223.56v-8.79l2.1-2.21 5.4.25v10.75z"/><circle class="st21" cx="279.8" cy="173.88" r="4.56" style="stroke:#fff;stroke-width:6;stroke-miterlimit:10"/><path class="st21" style="stroke:#fff;stroke-width:6;stroke-miterlimit:10" d="m132.88 255.72 2.83 4.71 5.1-1.26-3.34 4.17 2.83 4.71-4.9-2.13-3.35 4.17.32-5.49-4.91-2.14 5.1-1.25z"/><circle class="st21" cx="199.97" cy="236.84" r="5.62" style="stroke:#fff;stroke-width:6;stroke-miterlimit:10"/><ellipse class="st21" cx="184.25" cy="245.48" rx="3.38" ry="3.14" style="stroke:#fff;stroke-width:6;stroke-miterlimit:10"/><path class="st21" style="stroke:#fff;stroke-width:6;stroke-miterlimit:10" d="M216.68 223.77v-8.79l2.1-2.21 5.4.25v10.75zM248.83 223.77v-8.79l2.1-2.21 5.4.25v10.75zM194.48 175.23l4.06 3.92 4.72-2.6-2.21 5.03 4.06 3.92-5.43-.82-2.22 5.02-1.14-5.52-5.43-.82 4.73-2.6z"/></g><path class="st22" d="M21.66 110.899c-6.48-10.44 27.24-43.11 75.33-72.98 48.09-29.87 86.75-41.62 93.23-31.18 6.48 10.44-21.67 39.11-69.76 68.98-48.09 29.87-92.32 45.62-98.8 35.18z" style="fill:none;stroke:#fff;stroke-width:6;stroke-miterlimit:10"/><path class="st7" style="stroke:#000;stroke-width:3;stroke-miterlimit:10" d="M125.12 237.48v-54.5l3.78-4.75h9.47v59.25zM139.86 204.18l3.75-3.28h7.36l-.18 16.25h9.01l.28-16.25h9.53l.25 36.58h-30zM171.18 204.4l3.65-3.5h23.6v12.19l-15.25.21v10.47l15.25-.05v13.76h-27.25zM199.97 200.9h12.5v36.59h-12.5zM214.09 204.41l4-3.51h14.44l-.25-17.14 3-5.53h9.92l.14 22.67v36.58h-31.25zM251.42 200.9h19.99l.25 4.25 3.49-4.25h6.35v36.58H247l-.25-32.08z" transform="translate(-92.77 -153.171)"/><path class="st23" style="fill:#fff;stroke:#000;stroke-width:3;stroke-miterlimit:10" transform="translate(-92.77 -153.171)" d="m131.64 204.18 3.75-3.28h7.36l-.18 16.25h9.01l.29-16.25h9.52l.25 36.58h-30zM162.97 204.4l3.64-3.5h23.61v12.19l-15.25.21v10.47l15.25-.05v13.76h-27.25z"/><path class="st23" style="fill:#fff;stroke:#000;stroke-width:3;stroke-miterlimit:10" d="M98.99 47.729h12.5v36.59h-12.5z"/><path class="st23" style="fill:#fff;stroke:#000;stroke-width:3;stroke-miterlimit:10" transform="translate(-92.77 -153.171)" d="m205.88 204.41 4-3.51h14.43l-.25-17.14 3-5.53h9.93l.14 22.67v36.58h-31.25zM243.21 200.9h19.99l.24 4.25 3.5-4.25h6.34v36.58h-34.5l-.25-32.08z"/><circle class="st7" cx="190.62" cy="7.149" r="2.38" style="stroke:#000;stroke-width:3;stroke-miterlimit:10"/><circle class="st7" cx="187.03" cy="20.709" r="4.56" style="stroke:#000;stroke-width:3;stroke-miterlimit:10"/><path class="st7" style="stroke:#000;stroke-width:3;stroke-miterlimit:10" transform="translate(-92.77 -153.171)" d="m132.88 255.72 2.83 4.71 5.1-1.26-3.34 4.17 2.83 4.71-4.9-2.13-3.35 4.17.32-5.49-4.91-2.14 5.1-1.25z"/><circle class="st7" cx="107.2" cy="83.669" r="5.62" style="stroke:#000;stroke-width:3;stroke-miterlimit:10"/><ellipse class="st7" cx="91.48" cy="92.309" rx="3.38" ry="3.14" style="stroke:#000;stroke-width:3;stroke-miterlimit:10"/><path class="st7" style="stroke:#000;stroke-width:3;stroke-miterlimit:10" transform="translate(-92.77 -153.171)" d="m194.48 175.23 4.06 3.92 4.72-2.6-2.21 5.03 4.06 3.92-5.43-.82-2.22 5.02-1.14-5.52-5.43-.82 4.73-2.6zM248.83 223.77v-8.79l2.1-2.21 5.4.25v10.75zM216.68 223.77v-8.79l2.1-2.21 5.4.25v10.75z"/><path class="st9" d="M21.66 110.899c-6.48-10.44 27.24-43.11 75.33-72.98 48.09-29.87 86.75-41.62 93.23-31.18 6.48 10.44-21.67 39.11-69.76 68.98-48.09 29.87-92.32 45.62-98.8 35.18z" style="fill:none;stroke:#000;stroke-width:3;stroke-miterlimit:10"/><path class="st23" style="fill:#fff;stroke:#000;stroke-width:3;stroke-miterlimit:10" transform="translate(-92.77 -153.171)" d="m162.97 204.4 3.64-3.5h23.61v12.19l-15.25.21v10.47l15.25-.05v13.76h-27.25zM131.64 204.18l3.75-3.28h7.36l-.18 16.25h9.01l.29-16.25h9.52l.25 36.58h-30zM116.91 237.48v-54.5l3.78-4.75h9.47v59.25z"/></svg>